<?xml version="1.0" encoding="UTF-8"?>
<svg
        xmlns="http://www.w3.org/2000/svg"
        width="24"
        height="24"
        viewBox="0 0 24 24"
        role="img"
        aria-label="WhatsApp"
>
    <defs>
        <linearGradient id="WA-gradient" x1="0%" y1="0%" x2="100%" y2="100%">
            <stop offset="0%" stop-color="#60D66A"/>
            <stop offset="100%" stop-color="#20B038"/>
        </linearGradient>
    </defs>

    <!-- Fond arrondi -->
    <path
            fill="url(#WA-gradient)"
            d="M12.04 2C6.5 2 2 6.5 2 12.04c0 2.05.62 3.94 1.69 5.53L2 22l4.6-1.65c1.53.84 3.28 1.3 5.13 1.3 5.54 0 10.04-4.5 10.04-10.04S17.58 2 12.04 2z"
    />

    <!-- Icône téléphone -->
    <path
            fill="#ffffff"
            d="M16.63 13.92c-.27-.13-1.59-.78-1.83-.87-.25-.09-.43-.13-.61.13-.18.27-.7.87-.86 1.04-.16.18-.32.2-.59.07-.27-.13-1.14-.42-2.17-1.33-.8-.71-1.34-1.59-1.5-1.86-.16-.27-.02-.42.11-.55.11-.11.27-.29.4-.43.13-.14.18-.23.27-.38.09-.18.04-.34-.02-.48-.07-.13-.61-1.48-.84-2.03-.22-.54-.45-.47-.61-.48l-.52-.01c-.18 0-.48.07-.73.34-.25.27-.96.94-.96 2.28s.99 2.64 1.12 2.82c.14.18 1.95 2.98 4.73 4.19.66.29 1.17.47 1.57.6.66.21 1.26.18 1.73.11.53-.08 1.59-.65 1.82-1.29.23-.64.23-1.19.16-1.29-.07-.11-.25-.18-.52-.31z"
    />
</svg>
