<?xml version="1.0" encoding="UTF-8"?>
<svg width="24" height="24" viewBox="0 0 24 24" fill="#fff" xmlns="http://www.w3.org/2000/svg" role="img" aria-label="WhatsApp">
  <path d="M12.051 21.785h-.004a9.87 9.87 0 0 1-5.031-1.378l-.361-.214-3.741.982.999-3.648-.235-.374a9.86 9.86 0 0 1-1.51-5.26c.001-5.45 4.436-9.884 9.888-9.884 2.64 0 5.122 1.03 6.988 2.897a9.825 9.825 0 0 1 2.898 6.994c-.003 5.45-4.437 9.884-9.891 9.884" fill="#000"/>
  <path d="M17.472 14.382c-.297-.149-1.758-.867-2.03-.967-.273-.099-.472-.148-.672.15-.197.297-.768.966-.94 1.164-.173.199-.347.223-.644.074-.297-.149-1.255-.463-2.39-1.475-.883-.788-1.48-1.761-1.653-2.059-.173-.297-.018-.458.13-.606.134-.133.297-.347.446-.52.149-.173.198-.298.298-.497.099-.198.05-.372-.025-.521-.075-.149-.672-1.61-.921-2.207-.242-.579-.487-.5-.672-.51-.173-.009-.372-.011-.571-.011-.198 0-.52.074-.792.372s-1.04 1.016-1.04 2.479 1.065 2.876 1.213 3.074c.149.198 2.095 3.2 5.076 4.487.709.306 1.262.489 1.694.626.712.227 1.36.195 1.872.118.571-.085 1.758-.719 2.006-1.413.248-.694.248-1.289.173-1.413-.074-.124-.272-.198-.571-.347" fill="#000"/>
</svg>
